<?xml version="1.0" encoding="utf-8"?>
<!-- Generator: Adobe Illustrator 19.1.0, SVG Export Plug-In . SVG Version: 6.00 Build 0)  -->
<!DOCTYPE svg PUBLIC "-//W3C//DTD SVG 1.1//EN" "http://www.w3.org/Graphics/SVG/1.1/DTD/svg11.dtd">
<svg version="1.1" id="Layer_1" xmlns="http://www.w3.org/2000/svg" xmlns:xlink="http://www.w3.org/1999/xlink" x="0px" y="0px"
	 viewBox="0 0 91.3 100" enable-background="new 0 0 91.3 100" xml:space="preserve">
<path fill="#FFFFFF" d="M88.2,96.2c-1.6,0-2.3-0.6-2.3-2.3V80.1c0-5.2-3.7-8.2-8.1-8.2c-4.4,0-7.1,2.1-9.7,5.5
	c-1.1-3.8-3.9-5.5-7.8-5.5c-4.5,0-7,2.2-9.3,5.8H51v-5h-2.7c-1.2,0-3.5-1.2-4.8-3.9c0,0-6.5-9.5,11-40.5C72-2.6,52.3-0.1,48.7,0.1
	c-1.5,0.1,2.2,3,0.2,4.3c-2,1.3-3.5-4.7-5.3-4.1c-3.3,1.2,1.3,9-1,9.8c-1.8,0.6-4.3-3.5-5-6.4c-0.8-3-4.4-0.9-1.5,8.8
	c2.9,9.7-0.9,8.4-3.2,4.6c-0.6-1-5.6-9.2-6.8-6.4c-1.2,2.8,4.3,10.5,4.3,10.5s4.3,6.5-3.9,3.9c-4.1-1.3-5.5-6.2-7.4-4.8
	c-2.5,1.8,5.5,9,5.5,9s5.1,6.2-3,3.5c-4.5-1.5-9.9-9.3-12.9-6.9c-3,2.3,6.2,9.6,10.3,11.9c4,2.3,2.8,5.1,0.2,4.9
	C16.5,42.5,7.6,42.5,4,45c-3.6,2.5-0.2,3.9,1.3,3.1c0.6-0.4,9.8-3.6,15.9,1.4c6.2,5,7.6,6.9,7.4,12.1c-0.2,5.3-2.3,7.7-7.9,7.9
	C15.1,69.7,6,68.3,3.8,68.6c-2.2,0.4-1.1,2.5,0.4,2.9c1.5,0.4,5.3,2.8,2.9,3.2C5.6,75,0,76.2,0,77.9c0.1,4,10.1-1.3,11.5,1.4
	c1.7,3.6-5.8,6-5.9,7.8c0,1.8,1.9,2.1,2.9,1.4c1-0.7,5.5-2.5,5.5-2.5s1.5-0.1,0.8,1.3c-0.7,1.3-3.7,3.6-3,5.9
	c0.7,2.3,2.8,2.7,3.5,0.9c0.6-1.6,12.5-17,26.6-17.4c1.6-0.1,2.3,0.6,2.3,2.3v14.9c0,1.7-0.7,2.3-2.3,2.3h-3.3v3.8H55v-3.8h-1.7
	c-1.6,0-2.3-0.6-2.3-2.3V83.3c0-3.5,2.9-6.9,6.5-6.9c3.5,0,4.1,2.2,4.1,5.2v12.2c0,1.7-0.7,2.3-2.3,2.3h-1.7v3.8h14.9v-3.8h-1.6
	c-1.6,0-2.3-0.6-2.3-2.3V83.3c0-3.8,3-6.9,6.5-6.9c2.3,0,4.1,1.3,4.1,3.7v13.8c0,1.7-0.7,2.3-2.3,2.3H75v3.8h16.3v-3.8H88.2z"/>
</svg>
